<?xml version="1.0" encoding="UTF-8"?><svg id="Capa_1" xmlns="http://www.w3.org/2000/svg" viewBox="0 0 444.67 207.43"><defs><style>.cls-1{fill:#2a2b2d;}.cls-1,.cls-2{stroke-width:0px;}.cls-2{fill:#ff4c60;}</style></defs><path class="cls-2" d="m279.93,0h-40.51c-1.2,0-2.17.97-2.17,2.17v203.08c0,1.2.97,2.17,2.17,2.17h40.4c1.2,0,2.17-.97,2.17-2.17l.12-203.08c0-1.2-.98-2.17-2.18-2.17"/><path class="cls-1" d="m337.76,82.56L288.61,3.49c-.4-.64-1.39-.36-1.39.4v76.8c0,.1.03.18.07.26l25.65,38.93c.18.28.6.28.78,0l24.03-36.81c.1-.15.11-.35,0-.5"/><path class="cls-2" d="m399.34,72.02L443.38,1.59c.44-.7-.06-1.59-.88-1.59h-45.45c-.96,0-1.87.5-2.38,1.33l-53.7,86.39-.03-.06-23.37,35.69c-.74,1.13-.74,2.6.01,3.72l22.2,33.54h1.18l58.38-88.6v.02Z"/><path class="cls-2" d="m97.99,65.95c.11.12.1.27,0,.39l-25.7,28.62c-.2.22-.64.22-.83,0L0,4.45l43.94.35c0-.59,1.05-.81,1.48-.31l52.57,61.47"/><path class="cls-1" d="m163.86,57.76L210.97,3.01c.47-.54-.07-1.24-.94-1.24h-48.62c-1.03,0-2,.39-2.54,1.03l-57.44,67.15-.04-.05-24.99,27.74c-.79.88-.79,2.02.01,2.9l23.75,26.07h1.26l62.44-68.87v.02Z"/><path class="cls-1" d="m97.99,133.45c.11-.12.1-.27,0-.39l-25.7-28.62c-.2-.22-.64-.22-.83,0L0,194.96l43.94-.35c0,.59,1.05.81,1.48.31l52.57-61.47"/><path class="cls-1" d="m399.42,81.55l-.07-.05v124.24c0,.93.76,1.69,1.69,1.69h41.95c.94,0,1.69-.77,1.69-1.69V15.08c0-1.71-2.22-2.34-3.12-.9l-42.13,67.38Z"/><path class="cls-2" d="m163.86,141.64l47.1,54.75c.47.54-.07,1.24-.94,1.24h-48.62c-1.03,0-2-.39-2.54-1.03l-57.44-67.15-.04.05-24.99-27.74c-.79-.88-.79-2.02.01-2.9l23.75-26.07h1.26s62.44,68.87,62.44,68.87v-.02Z"/></svg>