<svg width="150" height="150" viewBox="0 0 150 150" fill="none" xmlns="http://www.w3.org/2000/svg">
<rect width="150" height="150" fill="#FF4C60"/>
<path d="M71.9844 128H71.4141V122.141H72.0547V124.621C72.237 124.431 72.4531 124.283 72.7031 124.176C72.9531 124.069 73.2253 124.016 73.5195 124.016C73.9049 124.016 74.2487 124.104 74.5508 124.281C74.8529 124.458 75.0911 124.701 75.2656 125.008C75.4427 125.312 75.5312 125.659 75.5312 126.047C75.5312 126.432 75.4427 126.779 75.2656 127.086C75.0911 127.393 74.8529 127.635 74.5508 127.812C74.2487 127.99 73.9049 128.078 73.5195 128.078C73.2122 128.078 72.9297 128.021 72.6719 127.906C72.4167 127.789 72.1979 127.63 72.0156 127.43L71.9844 128ZM73.4648 127.5C73.7331 127.5 73.9727 127.438 74.1836 127.312C74.3971 127.185 74.5651 127.012 74.6875 126.793C74.8125 126.574 74.875 126.327 74.875 126.051C74.875 125.772 74.8125 125.523 74.6875 125.305C74.5651 125.083 74.3971 124.909 74.1836 124.781C73.9727 124.654 73.7331 124.59 73.4648 124.59C73.2096 124.59 72.9779 124.648 72.7695 124.766C72.5638 124.883 72.3971 125.043 72.2695 125.246C72.1445 125.449 72.0729 125.68 72.0547 125.938V126.152C72.0729 126.41 72.1445 126.641 72.2695 126.844C72.3945 127.047 72.5599 127.207 72.7656 127.324C72.974 127.441 73.207 127.5 73.4648 127.5ZM77.5508 129.953H76.8516L77.6719 127.969L75.8047 124.094H76.5117L77.9805 127.23L79.2773 124.094H79.9727L77.5508 129.953ZM57.6289 138H56.7695L54.9023 135.465L53.0273 138H52.207L54.4844 134.957L52.3828 132.141H53.2422L54.9492 134.453L56.6445 132.141H57.4688L55.3594 134.961L57.6289 138ZM58.7852 132.859C58.6758 132.859 58.5833 132.822 58.5078 132.746C58.4349 132.668 58.3984 132.574 58.3984 132.465C58.3984 132.358 58.4349 132.267 58.5078 132.191C58.5833 132.116 58.6758 132.078 58.7852 132.078C58.8971 132.078 58.9909 132.116 59.0664 132.191C59.1419 132.267 59.1797 132.358 59.1797 132.465C59.1797 132.574 59.1419 132.668 59.0664 132.746C58.9909 132.822 58.8971 132.859 58.7852 132.859ZM59.1055 138H58.4648V134.094H59.1055V138ZM66.5234 138H65.8828V135.918C65.8828 135.499 65.7904 135.173 65.6055 134.941C65.4232 134.707 65.1654 134.59 64.832 134.59C64.4961 134.59 64.2318 134.708 64.0391 134.945C63.849 135.18 63.7539 135.504 63.7539 135.918V138H63.1133V135.918C63.1133 135.499 63.0208 135.173 62.8359 134.941C62.651 134.707 62.3919 134.59 62.0586 134.59C61.7227 134.59 61.4583 134.708 61.2656 134.945C61.0755 135.18 60.9805 135.504 60.9805 135.918V138H60.3398V134.094H60.8633L60.8906 134.793C61.0208 134.538 61.1979 134.345 61.4219 134.215C61.6484 134.082 61.9154 134.016 62.2227 134.016C62.5508 134.016 62.8307 134.09 63.0625 134.238C63.2969 134.384 63.4714 134.594 63.5859 134.867C63.7135 134.589 63.8945 134.378 64.1289 134.234C64.3659 134.089 64.6484 134.016 64.9766 134.016C65.4635 134.016 65.8424 134.171 66.1133 134.48C66.3867 134.788 66.5234 135.217 66.5234 135.77V138ZM71.0859 137.52C70.6016 137.892 70.0677 138.078 69.4844 138.078C69.0781 138.078 68.7135 137.987 68.3906 137.805C68.0677 137.622 67.8125 137.375 67.625 137.062C67.4401 136.747 67.3477 136.392 67.3477 135.996C67.3477 135.616 67.4336 135.277 67.6055 134.98C67.7773 134.681 68.013 134.445 68.3125 134.273C68.612 134.102 68.9518 134.016 69.332 134.016C69.7227 134.016 70.0664 134.109 70.3633 134.297C70.6628 134.484 70.8958 134.745 71.0625 135.078C71.2292 135.411 71.3125 135.797 71.3125 136.234V136.359H68.043C68.0898 136.589 68.1836 136.788 68.3242 136.957C68.4648 137.126 68.6406 137.258 68.8516 137.352C69.0651 137.445 69.3021 137.492 69.5625 137.492C70.0104 137.492 70.4193 137.345 70.7891 137.051L71.0859 137.52ZM68.0195 135.812H70.707C70.6784 135.57 70.6029 135.359 70.4805 135.18C70.3607 134.997 70.2044 134.855 70.0117 134.754C69.8216 134.652 69.6068 134.602 69.3672 134.602C69.125 134.602 68.9062 134.652 68.7109 134.754C68.5182 134.855 68.3607 134.997 68.2383 135.18C68.1185 135.359 68.0456 135.57 68.0195 135.812ZM80.0703 138H79.3828V133.105L77.4258 137.016H76.8047L74.8555 133.129V138H74.168V132.141H75.0547L77.1172 136.293L79.1719 132.141H80.0703V138ZM84.8633 138H84.3008L84.2773 137.367C84.1341 137.596 83.9453 137.772 83.7109 137.895C83.4792 138.017 83.2044 138.078 82.8867 138.078C82.3685 138.078 81.9583 137.922 81.6562 137.609C81.3568 137.294 81.207 136.865 81.207 136.32V134.094H81.8477V136.273C81.8477 136.643 81.9518 136.939 82.1602 137.16C82.3711 137.382 82.651 137.492 83 137.492C83.3646 137.492 83.6589 137.372 83.8828 137.133C84.1094 136.893 84.2227 136.581 84.2227 136.195V134.094H84.8633V138ZM89.7305 138H89.0898V135.746C89.0898 135.395 88.9909 135.116 88.793 134.91C88.5977 134.704 88.3307 134.602 87.9922 134.602C87.75 134.602 87.5326 134.656 87.3398 134.766C87.1471 134.872 86.9948 135.023 86.8828 135.219C86.7708 135.414 86.7148 135.641 86.7148 135.898V138H86.0742V134.094H86.6328L86.6562 134.727C86.7995 134.497 86.9974 134.322 87.25 134.199C87.5052 134.077 87.7917 134.016 88.1094 134.016C88.6068 134.016 89.0013 134.165 89.293 134.465C89.5846 134.764 89.7305 135.168 89.7305 135.676V138ZM89.2422 132.348C89.2214 132.603 89.1471 132.801 89.0195 132.941C88.8919 133.079 88.7214 133.148 88.5078 133.148C88.3724 133.148 88.2565 133.124 88.1602 133.074C88.0664 133.025 87.9688 132.96 87.8672 132.879C87.7943 132.819 87.7188 132.767 87.6406 132.723C87.5651 132.678 87.4779 132.656 87.3789 132.656C87.1211 132.656 86.9701 132.807 86.9258 133.109H86.6367C86.6836 132.576 86.9284 132.309 87.3711 132.309C87.5247 132.309 87.6523 132.337 87.7539 132.395C87.8581 132.452 87.9531 132.513 88.0391 132.578C88.1146 132.635 88.1901 132.686 88.2656 132.73C88.3411 132.772 88.4271 132.793 88.5234 132.793C88.7682 132.793 88.9128 132.645 88.957 132.348H89.2422ZM92.5977 138.078C92.2096 138.078 91.8607 137.99 91.5508 137.812C91.2409 137.635 90.9961 137.395 90.8164 137.09C90.6393 136.783 90.5508 136.435 90.5508 136.047C90.5508 135.661 90.6393 135.316 90.8164 135.012C90.9961 134.704 91.2409 134.462 91.5508 134.285C91.8607 134.105 92.2096 134.016 92.5977 134.016C92.9857 134.016 93.3333 134.105 93.6406 134.285C93.9479 134.462 94.1901 134.704 94.3672 135.012C94.5443 135.316 94.6328 135.661 94.6328 136.047C94.6328 136.435 94.5443 136.783 94.3672 137.09C94.1901 137.395 93.9479 137.635 93.6406 137.812C93.3333 137.99 92.9857 138.078 92.5977 138.078ZM92.5938 137.5C92.8568 137.5 93.0924 137.436 93.3008 137.309C93.5091 137.181 93.6732 137.008 93.793 136.789C93.9154 136.57 93.9766 136.323 93.9766 136.047C93.9766 135.771 93.9154 135.523 93.793 135.305C93.6732 135.086 93.5091 134.913 93.3008 134.785C93.0924 134.658 92.8568 134.594 92.5938 134.594C92.3307 134.594 92.0938 134.658 91.8828 134.785C91.6745 134.913 91.5091 135.086 91.3867 135.305C91.2669 135.523 91.207 135.771 91.207 136.047C91.207 136.323 91.2669 136.57 91.3867 136.789C91.5091 137.008 91.6745 137.181 91.8828 137.309C92.0938 137.436 92.3307 137.5 92.5938 137.5ZM98.7109 138H95.2227V137.645L97.6406 134.672H95.3398V134.094H98.6133V134.402L96.1602 137.422H98.7109V138Z" fill="white"/>
<path fill-rule="evenodd" clip-rule="evenodd" d="M40.0724 23.2322C42.8342 20.4803 47.312 20.48 50.0735 23.2322L120.081 93.0018C122.843 95.754 122.843 100.217 120.081 102.969L110.08 112.936L109.817 113.185C107.041 115.685 102.755 115.602 100.079 112.936L30.0713 43.1664C27.3096 40.414 27.3096 35.9516 30.0713 33.1993L40.0724 23.2322ZM103.079 109.946C104.184 111.047 105.975 111.047 107.08 109.946L117.081 99.9788C118.185 98.8779 118.185 97.0927 117.081 95.9919L111.506 90.4361C111.389 90.6412 111.245 90.8362 111.07 91.0113L105.974 96.0893C104.911 97.1493 103.186 97.1493 102.122 96.0893C101.059 95.0292 101.059 93.3104 102.122 92.2504L107.218 87.1724C107.393 86.9975 107.588 86.8535 107.794 86.7364L100.505 79.4723C100.387 79.6774 100.244 79.8724 100.068 80.0475L94.9731 85.1255C93.9095 86.1855 92.1848 86.1855 91.1211 85.1255C90.0574 84.0654 90.0574 82.3466 91.1211 81.2866L96.2164 76.2086C96.3921 76.0337 96.5869 75.8898 96.7927 75.7726L89.5037 68.5085C89.3861 68.7136 89.2428 68.9086 89.0672 69.0837L83.9719 74.1617C82.9082 75.2217 81.1836 75.2217 80.1199 74.1617C79.0562 73.1016 79.0562 71.3828 80.1199 70.3228L85.2152 65.2448C85.3908 65.0699 85.5857 64.9259 85.7914 64.8088L78.5025 57.5447C78.3849 57.7498 78.2416 57.9448 78.0659 58.1199L72.9706 63.1979C71.907 64.2579 70.1823 64.2579 69.1187 63.1979C68.055 62.1378 68.055 60.4191 69.1187 59.359L74.2139 54.281C74.3896 54.1061 74.5845 53.9621 74.7902 53.845L67.5013 46.5809C67.3837 46.786 67.2404 46.981 67.0647 47.1561L61.9694 52.2341C60.9058 53.2941 59.1811 53.2941 58.1174 52.2341C57.0537 51.174 57.0537 49.4552 58.1174 48.3952L63.2127 43.3172C63.3884 43.1423 63.5832 42.9983 63.789 42.8812L56.5 35.6171C56.3824 35.8222 56.2391 36.0172 56.0635 36.1923L50.9682 41.2703C49.9045 42.3303 48.1799 42.3303 47.1162 41.2703C46.0525 40.2102 46.0525 38.4914 47.1162 37.4314L52.2115 32.3534C52.3871 32.1785 52.582 32.0345 52.7877 31.9174L47.0732 26.2223C45.9687 25.1215 44.1775 25.1218 43.0728 26.2223L33.0716 36.1894C31.9669 37.2903 31.9669 39.0753 33.0716 40.1762L103.079 109.946Z" fill="white"/>
<path fill-rule="evenodd" clip-rule="evenodd" d="M121.757 31.2056C123.414 32.857 123.414 35.5345 121.757 37.1859L56.0665 102.653C55.7553 102.963 55.3757 103.197 54.9581 103.335L34.2745 110.183C33.147 110.557 32.1342 109.547 32.5087 108.424L39.3804 87.8104C39.5192 87.3942 39.7535 87.0159 40.0647 86.7058L105.755 21.2386C107.412 19.5872 110.099 19.5871 111.756 21.2385L121.757 31.2056ZM37.6128 102.173L40.5458 105.096L50.1307 101.923L40.7977 92.6213L37.6128 102.173Z" fill="white"/>
</svg>
