<svg width="72" height="64" viewBox="0 0 72 64" fill="none" xmlns="http://www.w3.org/2000/svg">
<path fill-rule="evenodd" clip-rule="evenodd" d="M35.8954 17.4554C44.9741 17.4554 52.3339 24.7599 52.334 33.7702C52.334 40.0062 48.8083 45.4244 43.6276 48.17C42.7045 48.6592 42.3167 49.5777 42.3167 50.6162V52.8293C42.3167 54.2371 41.0518 55.3784 39.4913 55.3784H32.2995C30.5972 55.3784 29.2172 54.2371 29.2172 52.8293V50.6162C29.2172 49.5777 29.0863 48.6592 28.1632 48.17C22.9825 45.4244 19.4569 40.0062 19.4569 33.7702C19.457 24.7599 26.8167 17.4554 35.8954 17.4554ZM35.8954 21.5341C29.0864 21.5341 23.5666 27.0125 23.5665 33.7702C23.5665 38.0888 25.8208 41.8847 29.2253 44.0623C31.1721 45.3075 32.8132 47.2367 32.8132 49.5472V51.2998C32.8132 51.8629 33.2732 52.3194 33.8406 52.3194H37.9502C38.5177 52.3194 38.9776 51.8629 38.9776 51.2998V49.5472C38.9776 47.2367 40.6187 45.3075 42.5655 44.0623C45.97 41.8847 48.2243 38.0888 48.2243 33.7702C48.2242 27.0125 42.7044 21.5341 35.8954 21.5341Z" fill="#A1802C"/>
<path d="M30.8374 57.5165C30.8374 56.8184 31.4035 56.2524 32.1019 56.2524H39.6889C40.3873 56.2524 40.9534 56.8184 40.9534 57.5165C40.9534 58.2147 40.3873 58.7806 39.6889 58.7806H32.1019C31.4035 58.7806 30.8374 58.2147 30.8374 57.5165Z" fill="#A1802C"/>
<path d="M30.8374 60.6768C30.8374 59.9787 31.4035 59.4127 32.1019 59.4127H39.6889C40.3873 59.4127 40.9534 59.9787 40.9534 60.6768C40.9534 61.3749 40.3873 61.9409 39.6889 61.9409H32.1019C31.4035 61.9409 30.8374 61.3749 30.8374 60.6768Z" fill="#A1802C"/>
<path d="M38.4121 62.5729C38.419 62.6264 38.4244 62.6806 38.4244 62.7359C38.4244 63.434 37.8583 64 37.1599 64H34.6309C33.9325 64 33.3664 63.434 33.3664 62.7359C33.3664 62.6806 33.3713 62.6263 33.3781 62.5729C33.5615 62.6764 33.7731 62.7359 33.9987 62.7359H37.7922C38.0176 62.7359 38.2288 62.6763 38.4121 62.5729Z" fill="#A1802C"/>
<path d="M36.7425 23.699C36.7981 23.2169 37.235 22.8672 37.7113 22.9607C39.758 23.3626 41.6562 24.3367 43.1805 25.7772C44.7084 27.2212 45.7888 29.0663 46.3035 31.0922C46.4209 31.5543 46.1017 32.002 45.6317 32.0829C45.163 32.1635 44.721 31.8484 44.5957 31.3897C43.6796 28.0362 40.9419 25.4345 37.5112 24.7137C37.0355 24.6138 36.687 24.1817 36.7425 23.699Z" fill="#A1802C"/>
<path d="M8.31192 9.71629C9.29956 8.72897 10.9008 8.72897 11.8885 9.71629L17.8483 15.6742C18.8359 16.6615 18.8359 18.2623 17.8483 19.2496C16.8607 20.2369 15.2594 20.2369 14.2717 19.2496L8.31192 13.2917C7.32428 12.3044 7.32428 10.7036 8.31192 9.71629Z" fill="#A1802C"/>
<path d="M0.0868018 28.5937C0.448303 27.245 1.83505 26.4446 3.18419 26.806L11.3255 28.9867C12.6746 29.3481 13.4752 30.7344 13.1137 32.0831C12.7522 33.4318 11.3655 34.2322 10.0163 33.8708L1.87508 31.6901C0.525938 31.3287 -0.274699 29.9424 0.0868018 28.5937Z" fill="#A1802C"/>
<path d="M35.8954 13.4822C34.4987 13.4822 33.3664 12.3502 33.3664 10.954V2.5282C33.3664 1.13191 34.4987 0 35.8954 0C37.2921 0 38.4244 1.13191 38.4244 2.5282V10.954C38.4244 12.3502 37.2921 13.4822 35.8954 13.4822Z" fill="#A1802C"/>
<path d="M54.1223 19.5377C53.1346 18.5504 53.1346 16.9496 54.1223 15.9623L60.0821 10.0044C61.0697 9.01704 62.671 9.01704 63.6586 10.0044C64.6463 10.9917 64.6463 12.5925 63.6586 13.5798L57.6988 19.5377C56.7112 20.525 55.1099 20.525 54.1223 19.5377Z" fill="#A1802C"/>
<path d="M58.8863 32.0831C58.5248 30.7344 59.3254 29.3481 60.6745 28.9867L68.8158 26.806C70.165 26.4446 71.5517 27.245 71.9132 28.5937C72.2747 29.9424 71.4741 31.3287 70.1249 31.6901L61.9837 33.8708C60.6345 34.2322 59.2478 33.4318 58.8863 32.0831Z" fill="#A1802C"/>
</svg>
