<svg width="80" height="64" viewBox="0 0 80 64" fill="none" xmlns="http://www.w3.org/2000/svg">
<path d="M16.2134 31.9996C16.2134 45.2544 26.9253 55.9995 40.139 55.9995C46.7457 55.9995 52.7265 53.3131 57.0562 48.9702L62.6959 54.6274C58.2346 59.1024 52.5508 62.1505 46.3629 63.3852C40.1747 64.6199 33.76 63.9859 27.9309 61.5639C22.1018 59.1419 17.1194 55.0402 13.6141 49.7779C10.1089 44.5156 8.23822 38.3285 8.23822 31.9996H16.2134Z" fill="#1C7A66"/>
<path d="M33.9152 0.615055C40.1034 -0.619664 46.5181 0.0133671 52.3472 2.43536C58.1763 4.85735 63.1587 8.95909 66.664 14.2214C70.1693 19.4837 72.0398 25.6707 72.0399 31.9996H64.0647C64.0646 18.7449 53.3528 7.99978 40.139 7.99978C33.5322 7.99978 27.5506 10.686 23.2209 15.029L17.5822 9.37282C22.0435 4.89767 27.7272 1.84981 33.9152 0.615055Z" fill="#1C7A66"/>
<path d="M12.0868 20.8601L24.1736 33.61H0L12.0868 20.8601Z" fill="#1C7A66"/>
<path d="M67.9132 43.8599L55.8264 31.11H80L67.9132 43.8599Z" fill="#1C7A66"/>
</svg>
