<svg width="150" height="150" viewBox="0 0 150 150" fill="none" xmlns="http://www.w3.org/2000/svg">
<rect width="150" height="150" rx="75" fill="#F97B8B"/>
<path fill-rule="evenodd" clip-rule="evenodd" d="M40.0724 30.2322C42.8342 27.4803 47.312 27.48 50.0735 30.2322L120.081 100.002C122.843 102.754 122.843 107.217 120.081 109.969L110.08 119.936L109.817 120.185C107.041 122.685 102.755 122.602 100.079 119.936L30.0713 50.1664C27.3096 47.414 27.3096 42.9516 30.0713 40.1993L40.0724 30.2322ZM103.079 116.946C104.184 118.047 105.975 118.047 107.08 116.946L117.081 106.979C118.185 105.878 118.185 104.093 117.081 102.992L111.506 97.4361C111.389 97.6412 111.245 97.8362 111.07 98.0113L105.974 103.089C104.911 104.149 103.186 104.149 102.122 103.089C101.059 102.029 101.059 100.31 102.122 99.2504L107.218 94.1724C107.393 93.9975 107.588 93.8535 107.794 93.7364L100.505 86.4723C100.387 86.6774 100.244 86.8724 100.068 87.0475L94.9731 92.1255C93.9095 93.1855 92.1848 93.1855 91.1211 92.1255C90.0574 91.0654 90.0574 89.3466 91.1211 88.2866L96.2164 83.2086C96.3921 83.0337 96.5869 82.8898 96.7927 82.7726L89.5037 75.5085C89.3861 75.7136 89.2428 75.9086 89.0672 76.0837L83.9719 81.1617C82.9082 82.2217 81.1836 82.2217 80.1199 81.1617C79.0562 80.1016 79.0562 78.3828 80.1199 77.3228L85.2152 72.2448C85.3908 72.0699 85.5857 71.9259 85.7914 71.8088L78.5025 64.5447C78.3849 64.7498 78.2416 64.9448 78.0659 65.1199L72.9706 70.1979C71.907 71.2579 70.1823 71.2579 69.1187 70.1979C68.055 69.1378 68.055 67.4191 69.1187 66.359L74.2139 61.281C74.3896 61.1061 74.5845 60.9621 74.7902 60.845L67.5013 53.5809C67.3837 53.786 67.2404 53.981 67.0647 54.1561L61.9694 59.2341C60.9058 60.2941 59.1811 60.2941 58.1174 59.2341C57.0537 58.174 57.0537 56.4552 58.1174 55.3952L63.2127 50.3172C63.3884 50.1423 63.5832 49.9983 63.789 49.8812L56.5 42.6171C56.3824 42.8222 56.2391 43.0172 56.0635 43.1923L50.9682 48.2703C49.9045 49.3303 48.1799 49.3303 47.1162 48.2703C46.0525 47.2102 46.0525 45.4914 47.1162 44.4314L52.2115 39.3534C52.3871 39.1785 52.582 39.0345 52.7877 38.9174L47.0732 33.2223C45.9687 32.1215 44.1775 32.1218 43.0728 33.2223L33.0716 43.1894C31.9669 44.2903 31.9669 46.0753 33.0716 47.1762L103.079 116.946Z" fill="white"/>
<path fill-rule="evenodd" clip-rule="evenodd" d="M121.757 38.2056C123.414 39.857 123.414 42.5345 121.757 44.1859L56.0665 109.653C55.7553 109.963 55.3757 110.197 54.9581 110.335L34.2745 117.183C33.147 117.557 32.1342 116.547 32.5087 115.424L39.3804 94.8104C39.5192 94.3942 39.7535 94.0159 40.0647 93.7058L105.755 28.2386C107.412 26.5872 110.099 26.5871 111.756 28.2385L121.757 38.2056ZM37.6128 109.173L40.5458 112.096L50.1307 108.923L40.7977 99.6213L37.6128 109.173Z" fill="white"/>
</svg>
