<svg width="51" height="55" viewBox="0 0 51 55" fill="none" xmlns="http://www.w3.org/2000/svg">
<path fill-rule="evenodd" clip-rule="evenodd" d="M43.6197 4.68383C51.624 11.6194 52.4909 23.731 45.5555 31.7354C39.4394 38.7937 29.2992 40.3004 21.499 35.8024L9.26247 52.2731C7.442 54.7234 3.89951 55.0552 1.65527 52.9862C-0.486104 51.0116 -0.559974 47.6538 1.49294 45.5874L15.9711 31.0139C10.4051 23.9332 10.4515 13.6788 16.5688 6.61883C23.5044 -1.38513 35.6154 -2.25129 43.6197 4.68383ZM40.4804 8.30688C34.4772 3.10559 25.3936 3.75529 20.1919 9.75815C14.9903 15.7613 15.6403 24.8449 21.6432 30.0467C27.6464 35.2484 36.7299 34.5986 41.9317 28.5954C47.1332 22.5921 46.4836 13.5086 40.4804 8.30688Z" fill="#2F2F9B"/>
</svg>
