<svg width="64" height="64" viewBox="0 0 64 64" fill="none" xmlns="http://www.w3.org/2000/svg">
<path fill-rule="evenodd" clip-rule="evenodd" d="M8.133 2.17747C9.99356 0.323554 13.0102 0.32336 14.8706 2.17747L62.0338 49.1802C63.8941 51.0343 63.894 54.0406 62.0338 55.8948L55.2962 62.6095L55.1185 62.7774C53.2484 64.4616 50.3611 64.4058 48.5586 62.6095L1.3954 15.6068C-0.465134 13.7526 -0.465134 10.7463 1.3954 8.89214L8.133 2.17747ZM50.5799 60.5951C51.3241 61.3367 52.5307 61.3368 53.2749 60.5951L60.0125 53.8804C60.7564 53.1388 60.7565 51.9362 60.0125 51.1946L56.2568 47.4517C56.1776 47.5899 56.081 47.7212 55.9627 47.8392L52.5301 51.2601C51.8135 51.9743 50.6516 51.9743 49.9351 51.2601C49.2185 50.546 49.2185 49.3881 49.9351 48.6739L53.3677 45.253C53.486 45.1351 53.6173 45.0382 53.7559 44.9592L48.8455 40.0655C48.7662 40.2037 48.6697 40.3351 48.5513 40.4531L45.1187 43.874C44.4022 44.5881 43.2403 44.5881 42.5237 43.874C41.8071 43.1599 41.8071 42.0019 42.5237 41.2878L45.9563 37.8669C46.0746 37.749 46.2059 37.652 46.3445 37.5731L41.4341 32.6794C41.3549 32.8176 41.2583 32.9489 41.14 33.0669L37.7074 36.4879C36.9908 37.202 35.8289 37.202 35.1123 36.4879C34.3958 35.7737 34.3958 34.6158 35.1123 33.9017L38.545 30.4807C38.6633 30.3629 38.7946 30.2659 38.9332 30.187L34.0227 25.2932C33.9435 25.4314 33.847 25.5628 33.7286 25.6808L30.296 29.1017C29.5794 29.8159 28.4176 29.8158 27.701 29.1017C26.9844 28.3876 26.9844 27.2297 27.701 26.5155L31.1336 23.0946C31.2519 22.9767 31.3832 22.8798 31.5218 22.8008L26.6114 17.9071C26.5322 18.0453 26.4356 18.1767 26.3173 18.2946L22.8847 21.7156C22.1681 22.4297 21.0062 22.4297 20.2896 21.7156C19.573 21.0014 19.573 19.8435 20.2896 19.1294L23.7222 15.7085C23.8406 15.5906 23.9719 15.4936 24.1104 15.4147L19.2 10.521C19.1208 10.6592 19.0242 10.7905 18.9059 10.9085L15.4733 14.3295C14.7567 15.0436 13.5949 15.0436 12.8783 14.3295C12.1617 13.6153 12.1617 12.4574 12.8783 11.7433L16.3109 8.32231C16.4292 8.20444 16.5605 8.10748 16.6991 8.02854L12.8493 4.19187C12.1052 3.45028 10.8985 3.45048 10.1543 4.19187L3.41668 10.9065C2.67247 11.6482 2.67247 12.8507 3.41668 13.5924L50.5799 60.5951Z" fill="#9F2E3C"/>
<path fill-rule="evenodd" clip-rule="evenodd" d="M63.1628 7.54906C64.2791 8.66158 64.2791 10.4653 63.1628 11.5779L18.9079 55.6821C18.6983 55.891 18.4426 56.0484 18.1612 56.1415L4.22704 60.7551C3.46745 61.0065 2.78518 60.3266 3.03743 59.5696L7.66681 45.6828C7.76029 45.4024 7.91812 45.1476 8.12777 44.9386L52.3826 0.834394C53.4989 -0.278129 55.3088 -0.278133 56.4252 0.83439L63.1628 7.54906ZM6.47601 55.3584L8.45189 57.3276L14.9091 55.19L8.62157 48.9238L6.47601 55.3584Z" fill="#9F2E3C"/>
</svg>
